<?xml version="1.0" encoding="UTF-8"?>
<svg xmlns="http://www.w3.org/2000/svg" viewBox="0 0 512 512">
  <g>
    <path d="M256 16L496 96V256C496 400 256 496 256 496C256 496 16 400 16 256V96L256 16Z" fill="#0057B8"/>
    <path d="M256 32L480 104V256C480 390.4 256 480 256 480C256 480 32 390.4 32 256V104L256 32Z" fill="#fff"/>
    <path d="M256 48L464 112V256C464 380.8 256 464 256 464C256 464 48 380.8 48 256V112L256 48Z" fill="#0057B8"/>
    <circle cx="160" cy="200" r="40" fill="#fff" stroke="#0057B8" stroke-width="8"/>
    <circle cx="352" cy="200" r="40" fill="#fff" stroke="#0057B8" stroke-width="8"/>
    <path d="M256 320C288 320 320 288 320 256H192C192 288 224 320 256 320Z" fill="#fff" stroke="#0057B8" stroke-width="8"/>
    <path d="M160 200C160 186.745 170.745 176 184 176C197.255 176 208 186.745 208 200C208 213.255 197.255 224 184 224C170.745 224 160 213.255 160 200Z" fill="#0057B8"/>
    <path d="M352 200C352 186.745 362.745 176 376 176C389.255 176 400 186.745 400 200C400 213.255 389.255 224 376 224C362.745 224 352 213.255 352 200Z" fill="#0057B8"/>
    <ellipse cx="256" cy="272" rx="32" ry="16" fill="#0057B8"/>
  </g>
</svg>
